:SAMPLES-PER-SECOND 30
:FULLY-SPECIFIED
:DEGREES
294
root  -44.2858 34.8335 19.0071 -168.69 68.7226 -171.561
RightUpLeg  -11.987 -20.6589 -7.37281
RightLeg  20.1235 -6.30043 -1.85571
RightFoot  18.5292 0.406409 -1.91876
RightToes  -43.6152 -0.247988 -0.33462
Spine  0.515277 0.367978 -0.593055
Spine1  1.02072 0.830527 -0.509989
HEad  -62.322 -7.55187 -0.00670837
LeftShoulder1  -1.94126e-019 -3.10601e-018 -2.51263e-017
LeftArm  -5.50972 22.7662 -78.6934
LeftForeArm  56.7949 -77.637 -53.5175
LeftHand  -0.525063 -1.47003 9.05087
RightShoulder  -4.96962e-017 0 -2.36833e-017
RightArm  -23.5702 -37.1887 80.5929
RightForeArm  47.4477 63.8913 18.168
RightHand  -0.248224 -2.61245 -10.0014
LeftUpLeg  -10.6213 12.5401 1.52538
LeftLeg  25.361 20.8628 8.05447
LeftFoot  -1.39044 -0.0069348 -0.40993
LeftToes  -14.4194 2.32378e-006 -5.43956e-008
295
root  -44.3081 34.8395 19.3422 -168.062 67.897 -170.945
RightUpLeg  -12.6369 -19.7762 -6.69587
RightLeg  21.4481 -6.42583 -2.05522
RightFoot  17.9542 0.391416 -1.90426
RightToes  -43.1182 -0.24386 -0.33205
Spine  0.850637 0.530573 -0.961913
Spine1  1.67427 1.1767 -1.25004
HEad  -60.3657 -8.40846 0.912827
LeftShoulder1  -1.94126e-019 -3.10601e-018 -2.51263e-017
LeftArm  -4.67274 21.9899 -79.8707
LeftForeArm  56.0292 -77.4673 -52.2828
LeftHand  -0.508029 -1.16898 9.14076
RightShoulder  -4.96962e-017 0 -2.36833e-017
RightArm  -17.8245 -35.5429 80.5732
RightForeArm  51.0025 68.0159 22.409
RightHand  -0.250989 -2.41379 -9.46525
LeftUpLeg  -12.5332 13.3115 2.53604
LeftLeg  28.1647 18.6251 8.27066
LeftFoot  -0.229451 -0.000159784 0.0816411
LeftToes  -18.7111 2.32378e-006 -5.43956e-008
296
root  -44.2898 34.7882 19.6807 -167.199 67.7864 -170.181
RightUpLeg  -14.1412 -16.6776 -6.18276
RightLeg  24.4428 -5.7078 -2.16282
RightFoot  16.1247 0.29535 -1.51579
RightToes  -39.7699 -0.216648 -0.313819
Spine  1.12022 0.975278 -1.26205
Spine1  2.20154 2.07942 -1.83521
HEad  -59.1313 -9.24608 1.3203
LeftShoulder1  -1.94126e-019 -3.10601e-018 -2.51263e-017
LeftArm  -3.61451 20.7318 -80.4836
LeftForeArm  56.5634 -77.3908 -51.2939
LeftHand  -0.488036 -1.15624 8.80283
RightShoulder  -4.96962e-017 0 -2.36833e-017
RightArm  -9.83991 -32.4248 79.0592
RightForeArm  55.8304 71.1404 26.7773
RightHand  -0.271663 -1.93535 -8.911
LeftUpLeg  -15.2749 13.9457 3.62567
LeftLeg  32.8352 16.4078 8.94949
LeftFoot  1.46032 -0.00644489 0.667293
LeftToes  -25.9621 2.32378e-006 -5.43956e-008
297
root  -44.0484 34.6863 20.032 -168.235 69.9868 -170.445
RightUpLeg  -15.5558 -10.876 -6.51379
RightLeg  29.413 -4.15588 -2.00882
RightFoot  13.9083 0.18205 -0.932251
RightToes  -40.0039 -0.218515 -0.315144
Spine  1.68661 2.151 -1.91729
Spine1  3.29506 4.45205 -3.09959
HEad  -58.1865 -10.0746 1.70247
LeftShoulder1  -1.94126e-019 -3.10601e-018 -2.51263e-017
LeftArm  -1.95842 18.8886 -79.6034
LeftForeArm  58.2457 -77.5897 -52.2211
LeftHand  -0.502371 -1.19749 9.00371
RightShoulder  -4.96962e-017 0 -2.36833e-017
RightArm  -1.47103 -27.3158 77.509
RightForeArm  60.4261 72.9058 29.8096
RightHand  -0.344825 -0.404321 -8.0323
LeftUpLeg  -16.8616 15.5735 4.70429
LeftLeg  38.3918 14.3037 9.70545
LeftFoot  5.07303 -0.070622 1.75566
LeftToes  -38.2471 2.32378e-006 -5.43956e-008
298
root  -43.8076 34.471 20.341 -171.491 71.1666 -172.788
RightUpLeg  -16.5591 -9.36596 -7.64626
RightLeg  34.7223 -1.47874 -0.90535
RightFoot  11.9898 0.0768668 -0.188317
RightToes  -43.8128 -0.249636 -0.335632
Spine  2.11956 3.02727 -2.59238
Spine1  4.08639 6.24971 -4.42142
HEad  -57.429 -11.2309 1.4309
LeftShoulder1  -1.94126e-019 -3.10601e-018 -2.51263e-017
LeftArm  -0.355266 16.9099 -78.3265
LeftForeArm  58.5093 -77.7855 -54.0313
LeftHand  -0.511671 -0.906211 9.56788
RightShoulder  -4.96962e-017 0 -2.36833e-017
RightArm  4.78734 -21.8649 76.4019
RightForeArm  65.5404 74.1173 31.9834
RightHand  -0.40199 1.20514 -7.2095
LeftUpLeg  -17.8997 16.5483 4.90628
LeftLeg  42.8702 13.3872 10.6822
LeftFoot  7.42948 -0.149749 2.46773
LeftToes  -45.2898 2.32378e-006 -5.43956e-008
299
root  -43.5934 34.1253 20.7524 -174.332 71.4944 -174.58
RightUpLeg  -17.1744 -9.69978 -8.39723
RightLeg  38.8668 0.915069 0.622777
RightFoot  9.83862 0.0145089 0.358311
RightToes  -48.4778 -0.289498 -0.357837
Spine  2.2079 3.48338 -3.05211
Spine1  4.19382 7.20577 -5.3479
HEad  -56.3145 -11.3394 0.358265
LeftShoulder1  -1.94126e-019 -3.10601e-018 -2.51263e-017
LeftArm  -0.235396 15.5582 -77.1602
LeftForeArm  58.6629 -77.9517 -55.812
LeftHand  -0.497321 -0.61588 9.72837
RightShoulder  -4.96962e-017 0 -2.36833e-017
RightArm  9.16254 -16.2062 75.9988
RightForeArm  66.8552 73.669 30.4589
RightHand  -0.506265 2.27068 -7.86272
LeftUpLeg  -17.9137 16.3971 5.32512
LeftLeg  45.5592 13.4464 11.7687
LeftFoot  7.00679 -0.139794 2.44466
LeftToes  -46.7812 2.32378e-006 -5.43956e-008
300
root  -43.2292 33.7046 21.278 -176.321 72.2308 -175.492
RightUpLeg  -17.7778 -9.86586 -8.33398
RightLeg  42.8628 1.97789 1.58129
RightFoot  6.96717 0.00248559 0.475846
RightToes  -51.262 -0.314103 -0.369518
Spine  1.9474 3.99341 -3.22029
Spine1  3.65231 8.22706 -5.69103
HEad  -56.3014 -11.3914 -0.72901
LeftShoulder1  -1.94126e-019 -3.10601e-018 -2.51263e-017
LeftArm  -0.984409 15.1659 -76.3471
LeftForeArm  57.9894 -77.8628 -55.2559
LeftHand  -0.493453 -0.543998 9.76442
RightShoulder  -4.96962e-017 0 -2.36833e-017
RightArm  11.2205 -11.8877 76.1863
RightForeArm  66.2282 72.6233 28.0554
RightHand  -0.590989 2.33302 -9.07346
LeftUpLeg  -16.8247 16.0213 6.36053
LeftLeg  47.1249 13.7428 12.672
LeftFoot  4.97918 -0.0746458 1.87828
LeftToes  -46.1417 2.32378e-006 -5.43956e-008
301
root  -42.6262 33.3773 21.8501 -176.402 73.2935 -174.198
RightUpLeg  -16.5876 -10.7774 -7.19377
RightLeg  44.5233 2.35331 1.99921
RightFoot  3.01819 0.00464931 0.32737
RightToes  -49.145 -0.295342 -0.360745
Spine  1.49371 4.68782 -3.19772
Spine1  2.77111 9.57377 -5.6444
HEad  -57.6788 -11.7562 -0.764773
LeftShoulder1  -1.94126e-019 -3.10601e-018 -2.51263e-017
LeftArm  -1.28021 15.3003 -75.2861
LeftForeArm  55.3558 -77.3888 -52.0162
LeftHand  -0.502086 -0.361308 10.2333
RightShoulder  -4.96962e-017 0 -2.36833e-017
RightArm  11.4459 -9.52928 76.7775
RightForeArm  65.4131 71.376 25.6776
RightHand  -0.78106 3.08802 -10.9043
LeftUpLeg  -15.2289 15.7212 8.49404
LeftLeg  48.8499 13.741 13.4295
LeftFoot  4.20228 -0.0549394 1.65896
LeftToes  -47.7589 2.32378e-006 -5.43956e-008
302
root  -41.8819 33.1682 22.3937 -176.275 73.7696 -172.791
RightUpLeg  -13.4463 -12.5608 -6.17309
RightLeg  43.3782 2.94593 2.41194
RightFoot  -1.91426 -0.00854978 0.0319822
RightToes  -43.3486 -0.245771 -0.333246
Spine  0.889528 5.41597 -3.24195
Spine1  1.58793 10.971 -5.75846
HEad  -59.5858 -12.8217 -0.296348
LeftShoulder1  -1.94126e-019 -3.10601e-018 -2.51263e-017
LeftArm  -0.406337 15.6045 -73.6974
LeftForeArm  53.3496 -76.8744 -48.8253
LeftHand  -0.516757 -0.211772 10.7978
RightShoulder  -4.96962e-017 0 -2.36833e-017
RightArm  11.181 -9.75984 76.8268
RightForeArm  65.9943 71.9665 26.77
RightHand  -0.714877 3.3112 -9.76235
LeftUpLeg  -14.7942 14.7744 10.6164
LeftLeg  52.0829 13.417 14.6379
LeftFoot  6.73671 -0.144687 2.61949
LeftToes  -53.0352 2.32378e-006 -5.43956e-008
303
root  -41.1647 32.9868 23.0314 -173.009 73.4417 -168.042
RightUpLeg  -9.99336 -12.5827 -3.74046
RightLeg  41.5961 2.15854 1.65301
RightFoot  -5.94938 -0.033474 -0.111812
RightToes  -37.5362 -0.199106 -0.300786
Spine  0.245309 5.98133 -3.04401
Spine1  0.337568 12.0727 -5.44099
HEad  -60.9387 -13.687 0.351229
LeftShoulder1  -1.94126e-019 -3.10601e-018 -2.51263e-017
LeftArm  0.681646 15.8046 -72.004
LeftForeArm  53.5153 -76.4628 -46.0145
LeftHand  -0.499768 -1.00221 9.21565
RightShoulder  -4.96962e-017 0 -2.36833e-017
RightArm  10.9763 -10.8874 76.2831
RightForeArm  66.2968 72.6576 28.2435
RightHand  -0.708451 3.83329 -9.16222
LeftUpLeg  -15.4764 13.9682 13.9783
LeftLeg  56.1573 12.1931 15.366
LeftFoot  11.0822 -0.384853 4.12701
LeftToes  -59.8168 2.32378e-006 -5.43956e-008
304
root  -40.5874 32.8583 23.5845 -171.202 73.1465 -164.831
RightUpLeg  -7.23014 -11.4082 -1.54388
RightLeg  40.3215 0.623924 0.439069
RightFoot  -8.84427 -0.0367476 0.0655133
RightToes  -32.7792 -0.16352 -0.27081
Spine  -0.27084 6.27868 -2.82144
Spine1  -0.64491 12.6315 -5.05543
HEad  -62.0138 -13.7441 0.178468
LeftShoulder1  -1.94126e-019 -3.10601e-018 -2.51263e-017
LeftArm  0.536394 16.4759 -70.9793
LeftForeArm  54.2915 -76.3774 -45.2443
LeftHand  -0.460143 -1.62226 7.79095
RightShoulder  -4.96962e-017 0 -2.36833e-017
RightArm  11.9374 -11.6013 74.8225
RightForeArm  68.0473 73.7207 30.568
RightHand  -0.609909 3.80077 -7.95402
LeftUpLeg  -15.8206 13.3939 16.5947
LeftLeg  59.0332 11.367 15.9056
LeftFoot  15.1836 -0.717022 5.53739
LeftToes  -62.4309 2.32378e-006 -5.43956e-008
